<svg version="1.1" id="Layer_1" xmlns="http://www.w3.org/2000/svg" xmlns:xlink="http://www.w3.org/1999/xlink" x="0px" y="0px"
	 width="100%" viewBox="0 0 1024 1024" enable-background="new 0 0 1024 1024" xml:space="preserve">
<path fill="#FCFCFC" opacity="1.000000" stroke="none" 
	d="
M698.000000,1025.000000 
	C465.333344,1025.000000 233.166672,1025.000000 1.000000,1025.000000 
	C1.000000,683.666687 1.000000,342.333344 1.000000,1.000000 
	C342.333344,1.000000 683.666687,1.000000 1025.000000,1.000000 
	C1025.000000,342.333344 1025.000000,683.666687 1025.000000,1025.000000 
	C916.166687,1025.000000 807.333313,1025.000000 698.000000,1025.000000 
M319.091003,723.879761 
	C319.121979,724.578369 319.152924,725.277039 319.046997,726.641052 
	C319.092255,727.089233 319.137512,727.537415 319.027008,728.865540 
	C319.075134,731.245544 319.123260,733.625549 319.073486,736.868103 
	C319.835449,737.243958 320.594940,737.938599 321.359802,737.944519 
	C326.905762,737.987732 332.452759,737.891907 338.661316,737.984497 
	C339.107697,737.935913 339.554047,737.887390 340.793396,737.973999 
	C341.862061,737.929199 342.930695,737.884338 344.660095,737.986023 
	C345.106110,737.938232 345.552094,737.890442 346.847870,737.978394 
	C348.565033,737.932190 350.282196,737.886047 352.889771,737.987488 
	C355.593658,737.938110 358.297546,737.888733 361.881500,737.975342 
	C364.253967,737.930115 366.626434,737.884888 369.790833,737.988831 
	C370.860565,737.939331 371.930328,737.889832 373.662109,737.972839 
	C374.107819,737.928223 374.553497,737.883606 375.661224,737.983948 
	C376.107788,737.935730 376.554382,737.887451 377.850006,737.974731 
	C379.566223,737.929688 381.282471,737.884644 383.661133,737.984924 
	C384.108002,737.936340 384.554871,737.887817 385.909393,737.975220 
	C389.271912,737.928772 392.634399,737.882263 396.826172,737.984375 
	C398.225861,737.936035 399.625580,737.887756 401.816650,737.978455 
	C402.881104,737.921387 403.945557,737.864319 405.736359,737.589050 
	C405.753723,736.070740 405.771088,734.552368 405.933777,732.199280 
	C405.886536,730.791321 405.839325,729.383362 405.951324,727.053284 
	C405.895905,720.381042 405.840485,713.708862 405.930298,706.163086 
	C405.885193,704.101379 405.840088,702.039734 405.951202,699.249390 
	C405.898621,698.509888 405.846008,697.770325 405.935425,696.273376 
	C405.886871,695.507324 405.838318,694.741272 405.949066,693.053467 
	C405.897888,686.713684 405.846710,680.373962 405.938385,673.229980 
	C405.889740,672.145386 405.841125,671.060791 405.948669,669.196777 
	C405.895966,668.142456 405.843262,667.088135 405.931000,665.352112 
	C405.884094,664.892944 405.837158,664.433777 405.948517,663.057556 
	C405.895905,658.383240 405.843292,653.708984 405.933655,648.229980 
	C405.884888,647.144653 405.836121,646.059265 405.946564,644.051819 
	C405.893921,624.379700 405.841278,604.707642 405.934296,584.149475 
	C405.886963,581.758179 405.839661,579.366821 405.951782,576.053223 
	C405.899445,558.713440 405.847107,541.373718 405.938446,523.198486 
	C405.888275,521.790222 405.838104,520.381897 405.945465,518.116821 
	C405.893799,516.089661 405.842133,514.062561 405.937653,511.178619 
	C405.888062,509.444000 405.838470,507.709351 405.946381,505.117676 
	C405.893707,503.090088 405.841034,501.062469 405.932617,498.122803 
	C405.884277,494.740387 405.835968,491.357941 405.946594,487.196777 
	C405.893646,486.142670 405.840698,485.088593 405.932526,483.104858 
	C405.885406,477.728241 405.838287,472.351654 405.948822,466.091736 
	C405.894928,463.406128 405.841034,460.720520 405.928589,457.353027 
	C405.881592,456.893555 405.834595,456.434082 405.946808,455.117889 
	C405.894684,453.090302 405.842560,451.062744 405.934296,448.148621 
	C405.884766,445.756683 405.835236,443.364746 405.944550,440.050842 
	C405.893707,430.044952 405.842865,420.039032 405.937897,409.147247 
	C405.888702,406.756104 405.839508,404.364990 405.947479,401.056793 
	C405.894440,396.383240 405.841400,391.709717 405.931183,386.166656 
	C405.879181,384.116913 405.827148,382.067200 405.981628,379.602631 
	C405.981628,379.602631 406.045105,379.143616 406.974884,379.098755 
	C442.226044,379.125214 477.477386,379.109894 512.728149,379.245117 
	C516.115845,379.258118 516.983948,378.091797 516.897705,374.902374 
	C516.448364,358.285828 516.170593,341.664673 515.984741,324.113007 
	C515.976929,313.885162 516.007263,303.656982 515.919312,293.429840 
	C515.906494,291.934601 515.330383,290.444183 514.095886,288.739563 
	C412.115356,288.739563 310.134827,288.739563 208.249512,288.739563 
	C208.249512,319.227020 208.249512,349.097900 208.249512,379.187897 
	C245.370743,379.187897 282.157379,379.187897 318.968964,379.860229 
	C319.037964,382.180298 319.106995,384.500397 319.035156,387.354492 
	C319.080658,387.901031 319.126160,388.447601 319.021362,389.739807 
	C319.071136,390.495392 319.120880,391.250946 319.031677,392.796844 
	C319.078766,393.862549 319.125824,394.928284 319.024536,396.784973 
	C319.076843,406.860138 319.129150,416.935333 319.045471,427.665497 
	C319.091309,428.106720 319.137146,428.547974 319.030762,429.790283 
	C319.528473,433.261047 320.026184,436.731842 319.641296,440.387024 
	C319.489471,442.920593 319.337646,445.454132 319.031433,448.815002 
	C319.081421,450.212799 319.131409,451.610565 319.042694,453.797913 
	C319.533020,455.465179 320.023376,457.132477 320.385590,459.153076 
	C320.449554,459.515869 320.513550,459.878632 320.050415,460.393158 
	C319.935089,460.723541 319.819733,461.053925 319.114624,461.865601 
	C319.312653,462.782867 319.510651,463.700165 319.142853,465.300110 
	C319.612122,467.131561 320.081390,468.962982 319.914093,471.423767 
	C320.125427,476.690948 320.336761,481.958099 319.806274,487.420166 
	C319.811523,488.089111 319.816803,488.758026 319.134308,489.977356 
	C319.151428,492.308746 319.168549,494.640137 319.045776,497.767456 
	C319.091797,498.840515 319.137817,499.913574 319.030670,501.783142 
	C319.080750,502.859680 319.130798,503.936188 319.041626,505.833954 
	C319.089722,507.218170 319.137817,508.602386 319.032684,510.837128 
	C319.081329,512.561340 319.129974,514.285522 319.040100,516.832092 
	C319.085846,518.218079 319.131592,519.604004 319.024353,521.916016 
	C319.076843,527.614624 319.129333,533.313232 319.042389,539.801819 
	C319.512878,541.145569 319.983368,542.489380 320.009979,544.365906 
	C319.734680,546.841919 319.459381,549.317871 319.044586,552.341370 
	C319.090790,552.900574 319.137024,553.459717 319.030823,554.835266 
	C319.081543,556.214233 319.132263,557.593201 319.043213,559.836304 
	C319.543762,562.822388 320.044312,565.808533 319.933472,569.403259 
	C320.142426,572.681519 320.351379,575.959717 320.027252,579.391663 
	C319.908875,579.725830 319.790497,580.060059 319.103333,580.906067 
	C319.129028,581.929016 319.154724,582.951965 319.041595,584.722412 
	C319.087738,585.478210 319.133850,586.233948 319.027863,587.916565 
	C319.022644,591.637878 318.924530,595.362976 319.078522,599.077698 
	C319.116241,599.987366 319.978577,600.862732 320.541382,601.725159 
	C320.541382,601.725159 320.614990,601.766907 320.095734,602.251221 
	C320.239044,603.571228 320.382385,604.891174 319.586212,606.428162 
	C319.467743,607.672119 319.349274,608.916138 319.044037,610.708618 
	C319.087341,611.473999 319.130646,612.239319 319.036499,613.542358 
	C319.083221,614.090942 319.129913,614.639465 319.038910,616.040161 
	C319.032288,624.510498 318.866302,632.984924 319.082855,641.449524 
	C319.200073,646.031433 319.969818,650.596619 319.653259,655.321228 
	C319.497253,656.876831 319.341217,658.432434 319.031708,660.815613 
	C319.081726,662.213623 319.131744,663.611572 319.042664,665.873657 
	C319.090759,667.911682 319.138855,669.949707 319.032379,672.879456 
	C319.081268,675.590271 319.130127,678.301025 319.040070,681.704407 
	C319.103760,685.528381 319.167450,689.352356 319.053894,693.886658 
	C319.094269,695.593384 319.134613,697.300049 319.034302,699.853455 
	C319.079865,701.566650 319.125427,703.279846 319.022278,705.882080 
	C319.517426,710.654968 320.012604,715.427856 319.712860,720.379150 
	C319.668427,721.380493 319.623993,722.381775 319.091003,723.879761 
M570.989746,293.962433 
	C570.900513,296.457977 570.734924,298.953491 570.733276,301.449097 
	C570.697083,357.262115 570.678955,413.075134 569.764038,468.938324 
	C536.691284,468.955597 503.618561,468.999664 470.545929,468.954926 
	C466.592041,468.949554 463.215210,469.415344 462.015106,474.945038 
	C461.993408,501.799866 461.959076,528.654663 461.994751,555.509460 
	C461.996216,556.618652 462.653564,557.726868 463.931610,558.983093 
	C499.510406,559.027527 535.089233,559.071960 570.719299,560.033508 
	C570.718933,617.738342 570.708557,675.443237 570.771851,733.148010 
	C570.773560,734.711792 571.571106,736.274658 572.924255,737.989380 
	C598.590515,737.997131 624.256714,738.003845 649.922974,738.013245 
	C658.026550,738.016174 658.995544,737.042297 658.995544,728.820129 
	C658.995239,673.987976 658.992859,619.155884 658.991150,564.323730 
	C658.991089,562.581726 658.991150,560.839722 658.991150,558.671570 
	C698.501099,558.671570 737.241760,558.671570 775.357422,558.671570 
	C775.357422,528.625549 775.357422,499.017120 775.357422,468.969666 
	C736.226685,468.969666 697.817200,468.969666 659.367004,468.969666 
	C659.367004,437.664734 659.367004,406.805481 659.367004,375.806183 
	C711.082275,375.806183 762.412537,375.813568 813.742859,375.773956 
	C815.447815,375.772644 817.152344,375.295349 819.108582,374.122528 
	C819.108582,345.725311 819.108582,317.328094 819.108582,288.717926 
	C817.576477,288.717926 816.596191,288.717957 815.615845,288.717896 
	C736.731506,288.713531 657.847168,288.707306 578.962830,288.721252 
	C577.647583,288.721497 576.332336,288.967682 574.348083,289.068420 
	C573.300659,290.396606 572.253235,291.724762 570.989746,293.962433 
z"/>
<path fill="#0065FF" opacity="1.000000" stroke="none" 
	d="
M462.206573,474.026764 
	C463.215210,469.415344 466.592041,468.949554 470.545929,468.954926 
	C503.618561,468.999664 536.691284,468.955597 570.576172,468.705414 
	C571.591003,467.020264 571.970337,465.568115 571.971130,464.115784 
	C572.000854,408.690948 572.002502,353.266144 571.962402,297.841339 
	C571.961243,296.245026 571.469055,294.649078 571.205811,293.052948 
	C572.253235,291.724762 573.300659,290.396606 574.991455,289.359924 
	C577.783264,289.767975 579.931763,289.986053 582.080200,289.986542 
	C658.691895,290.004395 735.303711,290.043030 811.915161,289.901642 
	C816.588196,289.893036 818.166687,290.924500 818.114197,295.873352 
	C817.858337,320.019958 817.870728,344.172058 818.109131,368.319031 
	C818.155212,372.992676 816.769104,374.118439 812.239624,374.104065 
	C763.275269,373.948639 714.310181,374.007751 665.345337,374.008240 
	C663.592285,374.008240 661.839233,374.008209 660.086182,374.008209 
	C660.088379,374.352112 660.090576,374.696014 660.092712,375.039917 
	C713.014160,375.039917 765.935669,375.039917 818.857117,375.039917 
	C817.152344,375.295349 815.447815,375.772644 813.742859,375.773956 
	C762.412537,375.813568 711.082275,375.806183 659.367004,375.806183 
	C659.367004,406.805481 659.367004,437.664734 659.367004,468.969666 
	C697.817200,468.969666 736.226685,468.969666 775.357422,468.969666 
	C775.357422,499.017120 775.357422,528.625549 775.357422,558.671570 
	C737.241760,558.671570 698.501099,558.671570 658.991150,558.671570 
	C658.991150,560.839722 658.991089,562.581726 658.991150,564.323730 
	C658.992859,619.155884 658.995239,673.987976 658.995544,728.820129 
	C658.995544,737.042297 658.026550,738.016174 649.922974,738.013245 
	C624.256714,738.003845 598.590515,737.997131 572.464111,737.455627 
	C572.001770,679.633179 572.012939,622.344482 571.941467,565.055847 
	C571.938965,563.075500 571.111145,561.096191 570.667969,559.116394 
	C535.089233,559.071960 499.510406,559.027527 463.471313,558.451416 
	C463.007751,531.710754 463.019714,505.501648 462.967102,479.292664 
	C462.963562,477.536865 462.471436,475.782043 462.206573,474.026764 
z"/>
<path fill="#0066FF" opacity="1.000000" stroke="none" 
	d="
M319.184082,551.793884 
	C319.459381,549.317871 319.734680,546.841919 320.418396,543.676941 
	C320.278503,541.662598 319.730164,540.337219 319.181854,539.011841 
	C319.129333,533.313232 319.076843,527.614624 319.442780,521.375916 
	C321.639404,518.943420 321.889282,517.267212 319.178619,516.009766 
	C319.129974,514.285522 319.081329,512.561340 319.450256,510.334442 
	C321.631409,507.941345 321.890289,506.265442 319.180847,505.012726 
	C319.130798,503.936188 319.080750,502.859680 319.488068,501.278015 
	C320.146332,496.257019 320.347229,491.741150 320.548126,487.225281 
	C320.336761,481.958099 320.125427,476.690948 320.393005,470.579163 
	C320.773804,466.570190 320.675659,463.405792 320.577515,460.241425 
	C320.513550,459.878632 320.449554,459.515869 320.617584,458.533142 
	C320.293518,456.278229 319.737457,454.643311 319.181396,453.008362 
	C319.131409,451.610565 319.081421,450.212799 319.491089,448.293030 
	C320.141815,445.248260 320.332855,442.725433 320.523895,440.202606 
	C320.026184,436.731842 319.528473,433.261047 319.384583,429.346985 
	C320.028351,428.588013 320.318237,428.272339 320.608154,427.956665 
	C320.132599,427.641296 319.657043,427.325897 319.181458,427.010498 
	C319.129150,416.935333 319.076843,406.860138 319.426300,396.319580 
	C319.608917,394.571655 319.389771,393.289093 319.170624,392.006531 
	C319.120880,391.250946 319.071136,390.495392 319.415802,389.299591 
	C319.598816,388.179749 319.387390,387.500092 319.175995,386.820465 
	C319.106995,384.500397 319.037964,382.180298 318.710236,379.184204 
	C316.484253,378.337921 314.517151,378.021149 312.549744,378.019348 
	C279.883423,377.989288 247.216660,377.920593 214.551224,378.093597 
	C210.248199,378.116394 208.850113,377.120575 208.891235,372.588593 
	C209.118103,347.590881 208.977173,322.589996 209.012527,297.590302 
	C209.024582,289.069336 208.085510,290.009918 216.364517,290.008453 
	C313.863586,289.991058 411.362640,290.003021 508.861694,289.952637 
	C510.912933,289.951569 512.963867,289.299774 515.014893,288.951538 
	C515.330383,290.444183 515.906494,291.934601 515.919312,293.429840 
	C516.007263,303.656982 515.976929,313.885162 515.649414,324.896851 
	C515.211182,341.310974 514.929077,356.943451 515.118225,372.570221 
	C515.172607,377.066040 513.816833,378.113220 509.482666,378.089691 
	C476.863800,377.912354 444.243530,377.974762 411.623840,378.043152 
	C409.763489,378.047028 407.904663,378.760437 406.045105,379.143616 
	C406.045105,379.143616 405.981628,379.602631 405.501984,379.922485 
	C404.681580,382.112671 404.044159,383.982788 404.042816,385.853333 
	C403.992065,455.764191 404.000122,525.675049 404.000000,595.585938 
	C403.999908,640.861511 403.999542,686.137146 403.999146,731.412720 
	C403.999115,734.013367 404.585419,736.885925 401.025269,737.839478 
	C399.625580,737.887756 398.225861,737.936035 396.307190,737.533508 
	C392.084808,735.796143 388.378479,734.468628 385.001740,737.839294 
	C384.554871,737.887817 384.108002,737.936340 383.243774,737.561401 
	C380.679626,735.668762 378.596710,734.730591 377.000946,737.839172 
	C376.554382,737.887451 376.107788,737.935730 375.286133,737.631470 
	C374.592804,736.986450 374.274567,736.693787 373.956360,736.401184 
	C373.637604,736.880920 373.318848,737.360596 373.000061,737.840332 
	C371.930328,737.889832 370.860565,737.939331 369.298462,737.549438 
	C366.050201,735.701294 363.314148,734.505432 361.001434,737.839355 
	C358.297546,737.888733 355.593658,737.938110 352.358276,737.562683 
	C349.677826,735.668396 347.593079,734.730164 345.998108,737.842651 
	C345.552094,737.890442 345.106110,737.938232 344.259338,737.583984 
	C342.572540,737.400818 341.286469,737.619812 340.000397,737.838806 
	C339.554047,737.887390 339.107697,737.935913 338.231201,737.541382 
	C335.800537,736.804565 333.807495,736.341736 331.797882,736.252441 
	C327.593689,736.065796 323.380737,736.076111 319.171387,736.005554 
	C319.123260,733.625549 319.075134,731.245544 319.487915,728.318237 
	C320.135101,725.247559 320.321442,722.724121 320.507751,720.200745 
	C320.012604,715.427856 319.517426,710.654968 319.446320,705.351807 
	C321.323975,702.681702 322.264740,700.603210 319.174957,699.006775 
	C319.134613,697.300049 319.094269,695.593384 319.569489,693.331299 
	C320.991028,688.761475 322.739380,684.682251 319.179016,681.011841 
	C319.130127,678.301025 319.081268,675.590271 319.467773,672.342285 
	C321.482849,669.346680 322.156250,666.984497 319.181763,665.009583 
	C319.131744,663.611572 319.081726,662.213623 319.488342,660.295166 
	C320.111694,658.239563 320.278442,656.704468 320.445190,655.169373 
	C319.969818,650.596619 319.200073,646.031433 319.082855,641.449524 
	C318.866302,632.984924 319.032288,624.510498 319.429138,615.527100 
	C319.604248,614.344238 319.389099,613.674438 319.173950,613.004700 
	C319.130646,612.239319 319.087341,611.473999 319.570251,610.235718 
	C320.239532,608.578979 320.382629,607.395081 320.525726,606.211182 
	C320.382385,604.891174 320.239044,603.571228 320.476440,601.530090 
	C320.857178,598.554688 320.857178,596.300476 320.857178,594.046204 
	C320.542267,594.054871 320.227325,594.063477 319.912415,594.072083 
	C320.095520,596.632690 320.278656,599.193237 320.461792,601.753845 
	C319.978577,600.862732 319.116241,599.987366 319.078522,599.077698 
	C318.924530,595.362976 319.022644,591.637878 319.486816,587.345276 
	C320.150604,584.261963 320.355469,581.750000 320.560333,579.237976 
	C320.351379,575.959717 320.142426,572.681519 320.400879,568.573486 
	C320.911560,563.964539 321.133026,560.174927 320.912994,556.411194 
	C320.821320,554.843750 319.788788,553.331299 319.184082,551.793884 
M320.516602,530.412903 
	C320.516602,530.412903 320.580994,530.522705 320.516602,530.412903 
z"/>
<path fill="#013EFF" opacity="1.000000" stroke="none" 
	d="
M514.555420,288.845581 
	C512.963867,289.299774 510.912933,289.951569 508.861694,289.952637 
	C411.362640,290.003021 313.863586,289.991058 216.364517,290.008453 
	C208.085510,290.009918 209.024582,289.069336 209.012527,297.590302 
	C208.977173,322.589996 209.118103,347.590881 208.891235,372.588593 
	C208.850113,377.120575 210.248199,378.116394 214.551224,378.093597 
	C247.216660,377.920593 279.883423,377.989288 312.549744,378.019348 
	C314.517151,378.021149 316.484253,378.337921 318.697754,378.848022 
	C282.157379,379.187897 245.370743,379.187897 208.249512,379.187897 
	C208.249512,349.097900 208.249512,319.227020 208.249512,288.739563 
	C310.134827,288.739563 412.115356,288.739563 514.555420,288.845581 
z"/>
<path fill="#0143FF" opacity="1.000000" stroke="none" 
	d="
M818.982849,374.581238 
	C765.935669,375.039917 713.014160,375.039917 660.092712,375.039917 
	C660.090576,374.696014 660.088379,374.352112 660.086182,374.008209 
	C661.839233,374.008209 663.592285,374.008240 665.345337,374.008240 
	C714.310181,374.007751 763.275269,373.948639 812.239624,374.104065 
	C816.769104,374.118439 818.155212,372.992676 818.109131,368.319031 
	C817.870728,344.172058 817.858337,320.019958 818.114197,295.873352 
	C818.166687,290.924500 816.588196,289.893036 811.915161,289.901642 
	C735.303711,290.043030 658.691895,290.004395 582.080200,289.986542 
	C579.931763,289.986053 577.783264,289.767975 575.325928,289.375244 
	C576.332336,288.967682 577.647583,288.721497 578.962830,288.721252 
	C657.847168,288.707306 736.731506,288.713531 815.615845,288.717896 
	C816.596191,288.717957 817.576477,288.717926 819.108582,288.717926 
	C819.108582,317.328094 819.108582,345.725311 818.982849,374.581238 
z"/>
<path fill="#0055FF" opacity="1.000000" stroke="none" 
	d="
M401.420959,737.908936 
	C404.585419,736.885925 403.999115,734.013367 403.999146,731.412720 
	C403.999542,686.137146 403.999908,640.861511 404.000000,595.585938 
	C404.000122,525.675049 403.992065,455.764191 404.042816,385.853333 
	C404.044159,383.982788 404.681580,382.112671 405.398743,380.129913 
	C405.827148,382.067200 405.879181,384.116913 405.611633,386.924927 
	C405.458191,392.446747 405.624268,397.210297 405.790314,401.973846 
	C405.839508,404.364990 405.888702,406.756104 405.614899,409.915894 
	C405.194489,415.103638 404.950104,419.525574 405.036407,423.941071 
	C405.147400,429.621033 405.523712,435.295807 405.785736,440.972809 
	C405.835236,443.364746 405.884766,445.756683 405.627960,448.873230 
	C405.476929,451.723450 405.632233,453.849030 405.787598,455.974609 
	C405.834595,456.434082 405.881592,456.893555 405.617676,457.995667 
	C405.468231,461.417236 405.629700,464.196136 405.791199,466.975037 
	C405.838287,472.351654 405.885406,477.728241 405.642242,483.796753 
	C405.497192,485.650940 405.642426,486.813232 405.787659,487.975525 
	C405.835968,491.357941 405.884277,494.740387 405.626343,498.860474 
	C405.476318,501.723663 405.632599,503.849213 405.788879,505.974731 
	C405.838470,507.709351 405.888062,509.444000 405.629639,511.888306 
	C405.477081,514.723206 405.632507,516.848389 405.787964,518.973633 
	C405.838104,520.381897 405.888275,521.790222 405.616150,523.941467 
	C405.206482,541.522461 405.111267,558.360413 405.064148,575.198486 
	C405.062500,575.790161 405.538788,576.383179 405.792358,576.975525 
	C405.839661,579.366821 405.886963,581.758179 405.612183,584.918457 
	C405.203979,604.855713 405.111115,624.024109 405.063965,643.192505 
	C405.062500,643.785706 405.535553,644.380127 405.787384,644.973938 
	C405.836121,646.059265 405.884888,647.144653 405.613556,648.955750 
	C405.459045,654.445862 405.624634,659.210266 405.790253,663.974609 
	C405.837158,664.433777 405.884094,664.892944 405.642456,665.920044 
	C405.500122,667.650757 405.646301,668.813477 405.792511,669.976196 
	C405.841125,671.060791 405.889740,672.145386 405.616364,673.957031 
	C405.459473,681.114502 405.624603,687.544861 405.789734,693.975220 
	C405.838318,694.741272 405.886871,695.507324 405.655243,696.848755 
	C405.515045,698.275391 405.654999,699.126709 405.794983,699.978027 
	C405.840088,702.039734 405.885193,704.101379 405.609344,706.926147 
	C405.456268,714.451294 405.624146,721.213318 405.792053,727.975403 
	C405.839325,729.383362 405.886536,730.791321 405.629913,732.881470 
	C405.220703,734.978149 405.115356,736.392700 405.010010,737.807251 
	C403.945557,737.864319 402.881104,737.921387 401.420959,737.908936 
z"/>
<path fill="#0743FF" opacity="1.000000" stroke="none" 
	d="
M406.510010,379.121185 
	C407.904663,378.760437 409.763489,378.047028 411.623840,378.043152 
	C444.243530,377.974762 476.863800,377.912354 509.482666,378.089691 
	C513.816833,378.113220 515.172607,377.066040 515.118225,372.570221 
	C514.929077,356.943451 515.211182,341.310974 515.573608,325.362885 
	C516.170593,341.664673 516.448364,358.285828 516.897705,374.902374 
	C516.983948,378.091797 516.115845,379.258118 512.728149,379.245117 
	C477.477386,379.109894 442.226044,379.125214 406.510010,379.121185 
z"/>
<path fill="#003CFF" opacity="1.000000" stroke="none" 
	d="
M570.693604,559.574951 
	C571.111145,561.096191 571.938965,563.075500 571.941467,565.055847 
	C572.012939,622.344482 572.001770,679.633179 572.000732,737.379883 
	C571.571106,736.274658 570.773560,734.711792 570.771851,733.148010 
	C570.708557,675.443237 570.718933,617.738342 570.693604,559.574951 
z"/>
<path fill="#003CFF" opacity="1.000000" stroke="none" 
	d="
M571.097778,293.507690 
	C571.469055,294.649078 571.961243,296.245026 571.962402,297.841339 
	C572.002502,353.266144 572.000854,408.690948 571.971130,464.115784 
	C571.970337,465.568115 571.591003,467.020264 571.022827,468.680328 
	C570.678955,413.075134 570.697083,357.262115 570.733276,301.449097 
	C570.734924,298.953491 570.900513,296.457977 571.097778,293.507690 
z"/>
<path fill="#0143FF" opacity="1.000000" stroke="none" 
	d="
M462.110840,474.485901 
	C462.471436,475.782043 462.963562,477.536865 462.967102,479.292664 
	C463.019714,505.501648 463.007751,531.710754 463.008179,558.377686 
	C462.653564,557.726868 461.996216,556.618652 461.994751,555.509460 
	C461.959076,528.654663 461.993408,501.799866 462.110840,474.485901 
z"/>
<path fill="#0066FF" opacity="1.000000" stroke="none" 
	d="
M405.866974,644.512878 
	C405.535553,644.380127 405.062500,643.785706 405.063965,643.192505 
	C405.111115,624.024109 405.203979,604.855713 405.539337,585.361450 
	C405.841278,604.707642 405.893921,624.379700 405.866974,644.512878 
z"/>
<path fill="#0066FF" opacity="1.000000" stroke="none" 
	d="
M405.872070,576.514404 
	C405.538788,576.383179 405.062500,575.790161 405.064148,575.198486 
	C405.111267,558.360413 405.206482,541.522461 405.544312,524.359192 
	C405.847107,541.373718 405.899445,558.713440 405.872070,576.514404 
z"/>
<path fill="#0066FF" opacity="1.000000" stroke="none" 
	d="
M405.865143,440.511841 
	C405.523712,435.295807 405.147400,429.621033 405.036407,423.941071 
	C404.950104,419.525574 405.194489,415.103638 405.541931,410.358826 
	C405.842865,420.039032 405.893707,430.044952 405.865143,440.511841 
z"/>
<path fill="#0055FF" opacity="1.000000" stroke="none" 
	d="
M319.122437,736.436829 
	C323.380737,736.076111 327.593689,736.065796 331.797882,736.252441 
	C333.807495,736.341736 335.800537,736.804565 337.900269,737.469177 
	C332.452759,737.891907 326.905762,737.987732 321.359802,737.944519 
	C320.594940,737.938599 319.835449,737.243958 319.122437,736.436829 
z"/>
<path fill="#0055FF" opacity="1.000000" stroke="none" 
	d="
M319.114319,552.067627 
	C319.788788,553.331299 320.821320,554.843750 320.912994,556.411194 
	C321.133026,560.174927 320.911560,563.964539 320.706543,568.269165 
	C320.044312,565.808533 319.543762,562.822388 319.343292,559.156128 
	C319.489990,556.990234 319.336609,555.504578 319.183258,554.018921 
	C319.137024,553.459717 319.090790,552.900574 319.114319,552.067627 
z"/>
<path fill="#0055FF" opacity="1.000000" stroke="none" 
	d="
M385.455566,737.907227 
	C388.378479,734.468628 392.084808,735.796143 395.892578,737.459229 
	C392.634399,737.882263 389.271912,737.928772 385.455566,737.907227 
z"/>
<path fill="#0066FF" opacity="1.000000" stroke="none" 
	d="
M405.871704,727.514343 
	C405.624146,721.213318 405.456268,714.451294 405.536743,707.362915 
	C405.840485,713.708862 405.895905,720.381042 405.871704,727.514343 
z"/>
<path fill="#0055FF" opacity="1.000000" stroke="none" 
	d="
M319.109558,681.358154 
	C322.739380,684.682251 320.991028,688.761475 319.658112,692.976074 
	C319.167450,689.352356 319.103760,685.528381 319.109558,681.358154 
z"/>
<path fill="#0066FF" opacity="1.000000" stroke="none" 
	d="
M405.869385,693.514343 
	C405.624603,687.544861 405.459473,681.114502 405.544922,674.359131 
	C405.846710,680.373962 405.897888,686.713684 405.869385,693.514343 
z"/>
<path fill="#0055FF" opacity="1.000000" stroke="none" 
	d="
M320.177185,487.322723 
	C320.347229,491.741150 320.146332,496.257019 319.564636,500.879761 
	C319.137817,499.913574 319.091797,498.840515 319.370239,497.046906 
	C319.737183,494.026550 319.779633,491.726776 319.822083,489.426971 
	C319.816803,488.758026 319.811523,488.089111 320.177185,487.322723 
z"/>
<path fill="#0055FF" opacity="1.000000" stroke="none" 
	d="
M361.441467,737.907349 
	C363.314148,734.505432 366.050201,735.701294 368.902527,737.474854 
	C366.626434,737.884888 364.253967,737.930115 361.441467,737.907349 
z"/>
<path fill="#0066FF" opacity="1.000000" stroke="none" 
	d="
M405.869385,663.516113 
	C405.624634,659.210266 405.459045,654.445862 405.542053,649.358093 
	C405.843292,653.708984 405.895905,658.383240 405.869385,663.516113 
z"/>
<path fill="#0066FF" opacity="1.000000" stroke="none" 
	d="
M405.868896,401.515320 
	C405.624268,397.210297 405.458191,392.446747 405.540222,387.359680 
	C405.841400,391.709717 405.894440,396.383240 405.868896,401.515320 
z"/>
<path fill="#0055FF" opacity="1.000000" stroke="none" 
	d="
M319.112183,665.441650 
	C322.156250,666.984497 321.482849,669.346680 319.545044,671.896362 
	C319.138855,669.949707 319.090759,667.911682 319.112183,665.441650 
z"/>
<path fill="#0055FF" opacity="1.000000" stroke="none" 
	d="
M377.425476,737.906982 
	C378.596710,734.730591 380.679626,735.668762 382.912567,737.488708 
	C381.282471,737.884644 379.566223,737.929688 377.425476,737.906982 
z"/>
<path fill="#0055FF" opacity="1.000000" stroke="none" 
	d="
M319.104614,699.430115 
	C322.264740,700.603210 321.323975,702.681702 319.520660,704.907288 
	C319.125427,703.279846 319.079865,701.566650 319.104614,699.430115 
z"/>
<path fill="#0055FF" opacity="1.000000" stroke="none" 
	d="
M346.422974,737.910522 
	C347.593079,734.730164 349.677826,735.668396 351.913086,737.488892 
	C350.282196,737.886047 348.565033,737.932190 346.422974,737.910522 
z"/>
<path fill="#0055FF" opacity="1.000000" stroke="none" 
	d="
M320.082581,440.294800 
	C320.332855,442.725433 320.141815,445.248260 319.568298,447.879395 
	C319.337646,445.454132 319.489471,442.920593 320.082581,440.294800 
z"/>
<path fill="#0055FF" opacity="1.000000" stroke="none" 
	d="
M319.111237,505.423340 
	C321.890289,506.265442 321.631409,507.941345 319.526917,509.909180 
	C319.137817,508.602386 319.089722,507.218170 319.111237,505.423340 
z"/>
<path fill="#0055FF" opacity="1.000000" stroke="none" 
	d="
M319.109375,516.420898 
	C321.889282,517.267212 321.639404,518.943420 319.519287,520.912903 
	C319.131592,519.604004 319.085846,518.218079 319.109375,516.420898 
z"/>
<path fill="#0055FF" opacity="1.000000" stroke="none" 
	d="
M320.293793,579.314819 
	C320.355469,581.750000 320.150604,584.261963 319.562866,586.881836 
	C319.133850,586.233948 319.087738,585.478210 319.354553,584.057495 
	C319.669037,582.393188 319.670593,581.393677 319.672119,580.394226 
	C319.790497,580.060059 319.908875,579.725830 320.293793,579.314819 
z"/>
<path fill="#0055FF" opacity="1.000000" stroke="none" 
	d="
M320.313965,460.317291 
	C320.675659,463.405792 320.773804,466.570190 320.711304,470.264496 
	C320.081390,468.962982 319.612122,467.131561 319.501678,464.421326 
	C319.808472,462.823120 319.756439,462.103699 319.704376,461.384308 
	C319.819733,461.053925 319.935089,460.723541 320.313965,460.317291 
z"/>
<path fill="#0055FF" opacity="1.000000" stroke="none" 
	d="
M320.110291,720.289917 
	C320.321442,722.724121 320.135101,725.247559 319.565796,727.878296 
	C319.137512,727.537415 319.092255,727.089233 319.344910,726.039307 
	C319.621735,724.752686 319.600647,724.067932 319.579529,723.383118 
	C319.623993,722.381775 319.668427,721.380493 320.110291,720.289917 
z"/>
<path fill="#0066FF" opacity="1.000000" stroke="none" 
	d="
M405.869995,466.533386 
	C405.629700,464.196136 405.468231,461.417236 405.546936,458.336609 
	C405.841034,460.720520 405.894928,463.406128 405.869995,466.533386 
z"/>
<path fill="#0055FF" opacity="1.000000" stroke="none" 
	d="
M319.101135,392.401672 
	C319.389771,393.289093 319.608917,394.571655 319.500488,395.924103 
	C319.125824,394.928284 319.078766,393.862549 319.101135,392.401672 
z"/>
<path fill="#0055FF" opacity="1.000000" stroke="none" 
	d="
M320.501587,601.739502 
	C320.278656,599.193237 320.095520,596.632690 319.912415,594.072083 
	C320.227325,594.063477 320.542267,594.054871 320.857178,594.046204 
	C320.857178,596.300476 320.857178,598.554688 320.736084,601.287964 
	C320.614990,601.766907 320.541382,601.725159 320.501587,601.739502 
z"/>
<path fill="#0055FF" opacity="1.000000" stroke="none" 
	d="
M340.396912,737.906372 
	C341.286469,737.619812 342.572540,737.400818 343.928955,737.510742 
	C342.930695,737.884338 341.862061,737.929199 340.396912,737.906372 
z"/>
<path fill="#0055FF" opacity="1.000000" stroke="none" 
	d="
M319.112122,539.406860 
	C319.730164,540.337219 320.278503,541.662598 320.640320,543.410522 
	C319.983368,542.489380 319.512878,541.145569 319.112122,539.406860 
z"/>
<path fill="#0055FF" opacity="1.000000" stroke="none" 
	d="
M320.049225,655.245300 
	C320.278442,656.704468 320.111694,658.239563 319.565063,659.881348 
	C319.341217,658.432434 319.497253,656.876831 320.049225,655.245300 
z"/>
<path fill="#0055FF" opacity="1.000000" stroke="none" 
	d="
M319.112061,453.403137 
	C319.737457,454.643311 320.293518,456.278229 320.681641,458.356445 
	C320.023376,457.132477 319.533020,455.465179 319.112061,453.403137 
z"/>
<path fill="#0066FF" opacity="1.000000" stroke="none" 
	d="
M405.867188,455.546265 
	C405.632233,453.849030 405.476929,451.723450 405.556030,449.316528 
	C405.842560,451.062744 405.894684,453.090302 405.867188,455.546265 
z"/>
<path fill="#0066FF" opacity="1.000000" stroke="none" 
	d="
M405.866699,518.545227 
	C405.632507,516.848389 405.477081,514.723206 405.556061,512.316650 
	C405.842133,514.062561 405.893799,516.089661 405.866699,518.545227 
z"/>
<path fill="#0066FF" opacity="1.000000" stroke="none" 
	d="
M405.867615,505.546204 
	C405.632599,503.849213 405.476318,501.723663 405.554230,499.316528 
	C405.841034,501.062469 405.893707,503.090088 405.867615,505.546204 
z"/>
<path fill="#0066FF" opacity="1.000000" stroke="none" 
	d="
M319.478210,489.702148 
	C319.779633,491.726776 319.737183,494.026550 319.440186,496.648926 
	C319.168549,494.640137 319.151428,492.308746 319.478210,489.702148 
z"/>
<path fill="#0066FF" opacity="1.000000" stroke="none" 
	d="
M319.107056,554.427124 
	C319.336609,555.504578 319.489990,556.990234 319.413147,558.723999 
	C319.132263,557.593201 319.081543,556.214233 319.107056,554.427124 
z"/>
<path fill="#0066FF" opacity="1.000000" stroke="none" 
	d="
M405.373169,737.698120 
	C405.115356,736.392700 405.220703,734.978149 405.557251,733.298828 
	C405.771088,734.552368 405.753723,736.070740 405.373169,737.698120 
z"/>
<path fill="#0055FF" opacity="1.000000" stroke="none" 
	d="
M319.105591,387.087463 
	C319.387390,387.500092 319.598816,388.179749 319.490967,388.926758 
	C319.126160,388.447601 319.080658,387.901031 319.105591,387.087463 
z"/>
<path fill="#0055FF" opacity="1.000000" stroke="none" 
	d="
M373.331085,737.906616 
	C373.318848,737.360596 373.637604,736.880920 373.956360,736.401184 
	C374.274567,736.693787 374.592804,736.986450 374.955139,737.559082 
	C374.553497,737.883606 374.107819,737.928223 373.331085,737.906616 
z"/>
<path fill="#0066FF" opacity="1.000000" stroke="none" 
	d="
M405.870605,669.586487 
	C405.646301,668.813477 405.500122,667.650757 405.572266,666.260925 
	C405.843262,667.088135 405.895966,668.142456 405.870605,669.586487 
z"/>
<path fill="#0055FF" opacity="1.000000" stroke="none" 
	d="
M319.105225,613.273560 
	C319.389099,613.674438 319.604248,614.344238 319.497986,615.101013 
	C319.129913,614.639465 319.083221,614.090942 319.105225,613.273560 
z"/>
<path fill="#0055FF" opacity="1.000000" stroke="none" 
	d="
M319.113464,427.338013 
	C319.657043,427.325897 320.132599,427.641296 320.608154,427.956665 
	C320.318237,428.272339 320.028351,428.588013 319.460724,428.946411 
	C319.137146,428.547974 319.091309,428.106720 319.113464,427.338013 
z"/>
<path fill="#0066FF" opacity="1.000000" stroke="none" 
	d="
M405.867126,487.586151 
	C405.642426,486.813232 405.497192,485.650940 405.569855,484.261566 
	C405.840698,485.088593 405.893646,486.142670 405.867126,487.586151 
z"/>
<path fill="#0066FF" opacity="1.000000" stroke="none" 
	d="
M405.873077,699.613708 
	C405.654999,699.126709 405.515045,698.275391 405.584229,697.227417 
	C405.846008,697.770325 405.898621,698.509888 405.873077,699.613708 
z"/>
<path fill="#0055FF" opacity="1.000000" stroke="none" 
	d="
M320.055969,606.319702 
	C320.382629,607.395081 320.239532,608.578979 319.663605,609.961487 
	C319.349274,608.916138 319.467743,607.672119 320.055969,606.319702 
z"/>
<path fill="#0066FF" opacity="1.000000" stroke="none" 
	d="
M319.387726,580.650146 
	C319.670593,581.393677 319.669037,582.393188 319.423950,583.683777 
	C319.154724,582.951965 319.129028,581.929016 319.387726,580.650146 
z"/>
<path fill="#0066FF" opacity="1.000000" stroke="none" 
	d="
M319.335266,723.631470 
	C319.600647,724.067932 319.621735,724.752686 319.413361,725.706543 
	C319.152924,725.277039 319.121979,724.578369 319.335266,723.631470 
z"/>
<path fill="#0066FF" opacity="1.000000" stroke="none" 
	d="
M319.409485,461.624939 
	C319.756439,462.103699 319.808472,462.823120 319.784607,464.079956 
	C319.510651,463.700165 319.312653,462.782867 319.409485,461.624939 
z"/>
<path fill="#0055FF" opacity="1.000000" stroke="none" 
	d="
M320.548798,530.467773 
	C320.580994,530.522705 320.516602,530.412903 320.548798,530.467773 
z"/>
</svg>